<svg width="86" height="73" viewBox="0 0 86 73" fill="none" xmlns="http://www.w3.org/2000/svg">
<path d="M37.8937 68.6973L34.2173 65.2159L33.8837 54.7957C33.5294 43.732 32.9863 40.6116 30.5724 35.7683C28.9069 32.4266 26.4821 30.3871 23.0077 29.4056C18.4573 28.1201 13.8073 24.2316 14.5553 22.3374C14.7727 21.7869 15.6617 21.5788 17.8339 21.5701C20.6777 21.5587 23.3825 21.1132 25.3129 20.3383C25.9607 20.0782 26.3313 20.3012 26.6742 21.1572C28.9097 26.7384 29.4424 27.4 31.1794 26.7522C31.8334 26.5083 31.928 26.0637 31.6286 24.6389C30.9285 21.3061 31.0523 19.3649 31.9764 19.1868C33.6086 18.8722 36.5032 22.1041 39.2225 27.2772C41.231 31.0981 42.7465 33.1902 45.3541 35.7414C50.129 40.4131 52.4948 41.3729 62.3575 42.6397C71.6389 43.8318 71.5915 43.8196 71.5915 45.0071C71.5915 45.5355 65.8703 51.4547 58.0188 59.0496C46.7697 69.9309 44.1999 72.1786 43.0081 72.1786C41.9251 72.1786 40.6626 71.3192 37.8937 68.6973ZM16.3842 47.757C8.44311 39.9268 3.83919 34.9902 2.91737 33.317C-5.50578 18.0286 5.27864 0.0409684 22.8679 0.0409684C29.5812 0.0409684 35.9195 2.83668 40.8865 7.98864C41.7192 8.85241 42.6617 9.55912 42.9809 9.55912C43.3001 9.55912 44.2426 8.85241 45.0754 7.98864C47.9373 5.02014 52.5702 2.06931 55.9721 1.04823C73.333 -4.16266 89.7764 10.8844 85.2354 27.8265C84.1952 31.7073 82.4252 34.7857 79.3886 37.9955C77.3153 40.187 76.6185 40.6159 75.1515 40.6031C71.7403 40.5735 59.6888 38.7702 59.104 38.2019C58.0076 37.1364 60.4792 35.2804 63.45 34.9385C66.958 34.5347 69.4787 32.8206 71.2716 29.6194C72.5051 27.417 72.6502 26.7989 72.173 25.781C71.5698 24.4944 69.7352 23.5859 67.7404 23.5859C67.0768 23.5859 65.5422 22.7807 64.3301 21.7966C63.118 20.8125 61.2402 19.568 60.1573 19.0311C57.8669 17.8957 57.6772 17.0132 59.4771 15.8671C60.9612 14.9222 61.1175 13.9731 59.9449 13.0274C59.2527 12.4691 58.7735 12.5459 56.8896 13.5171C53.5509 15.2383 48.427 19.5342 45.8824 22.7456C44.6429 24.3099 43.3008 25.5897 42.8999 25.5897C42.499 25.5897 41.7382 24.6084 41.2091 23.4091C40.6801 22.2097 39.4925 20.393 38.5699 19.3719C34.9786 15.3972 30.7062 14.6359 24.2645 16.823C21.7699 17.67 19.4752 18.0754 17.1757 18.0754C14.105 18.0754 13.6296 18.2172 12.2687 19.5397C10.5606 21.1996 10.302 23.2724 11.5178 25.5572C12.7265 27.8286 16.8102 30.9819 19.9651 32.08C24.2659 33.5769 25.3067 34.2036 26.6073 36.079C28.9414 39.4449 29.9291 43.8026 30.2192 52.0151C30.4794 59.3801 30.4524 59.6547 29.4697 59.6547C28.8215 59.6547 24.0567 55.3224 16.3842 47.757ZM50.662 35.6948C48.5396 34.199 45.3007 30.8497 45.3007 30.1508C45.3007 28.9198 51.1723 21.6998 52.7366 21.0072C54.3174 20.3072 58.8432 22.0553 61.9819 24.5782C63.3595 25.6856 64.881 26.5916 65.363 26.5916C65.845 26.5916 66.661 26.8912 67.1764 27.2575C69.2579 28.7365 65.5705 31.6012 61.585 31.6012C60.1285 31.6012 59.2211 32.1162 56.7312 34.3564C55.0468 35.8718 53.4446 37.1117 53.1706 37.1117C52.8966 37.1117 51.7677 36.4741 50.662 35.6948Z" fill="#E29417"/>
<path d="M38.1042 68.2962L34.5805 64.9147L34.3275 54.8956C34.1267 46.9467 33.8555 44.0803 33.0148 41.0233C31.0575 33.9058 28.5147 30.7531 23.3961 29.0978C18.1039 27.3864 13.882 23.8622 15.3782 22.405C15.7014 22.0901 17.8687 21.7045 20.1944 21.548C22.52 21.3916 24.8268 21.0864 25.3206 20.8699C25.9108 20.6111 26.2887 20.7086 26.4237 21.1544C28.0338 26.4737 29.4079 28.1193 31.3821 27.0926C32.61 26.454 32.6585 25.5647 31.6231 22.6759C30.8151 20.4215 30.9575 19.5783 32.1463 19.5783C33.7075 19.5783 36.1639 22.4377 38.6612 27.1623C42.5226 34.4674 47.6689 39.5273 53.1566 41.4142C54.8781 42.0062 68.5359 44.1251 70.6299 44.1251C72.2453 44.1251 69.5475 47.1858 57.7977 58.6838C46.7256 69.5187 44.2792 71.6776 43.0737 71.6776C41.9806 71.6776 40.7686 70.853 38.1042 68.2962ZM16.5317 47.2746C6.10932 36.938 4.27292 34.8809 2.67899 31.7568C-0.55413 25.4199 -0.26281 17.2442 3.41331 11.1484C6.67993 5.73168 13.2388 1.45819 19.5982 0.603089C26.818 -0.36771 33.3011 1.75885 39.2377 7.04513C41.0999 8.70336 42.7844 10.0601 42.981 10.0601C43.1776 10.0601 44.8621 8.70336 46.7243 7.04513C52.6607 1.75902 58.6707 -0.212195 66.2942 0.626398C72.2705 1.28379 78.761 5.32959 82.11 10.4851C86.0324 16.5231 86.6134 24.9347 83.5479 31.3006C82.6699 33.124 80.7471 35.8532 79.2743 37.3664C76.855 39.8523 76.3931 40.1145 74.4809 40.0874C71.5307 40.0457 59.8486 38.391 59.3956 37.9508C58.6325 37.2093 60.8634 35.8767 63.8637 35.282C67.6232 34.5368 69.625 33.2274 71.3318 30.3973C73.7253 26.4284 72.7684 23.9408 68.5989 23.2929C67.3834 23.104 65.573 22.3086 64.5363 21.508C63.5077 20.7137 61.8327 19.5772 60.8139 18.9826C59.7952 18.3879 58.8626 17.8255 58.7415 17.7327C58.6204 17.6399 59.1649 16.9112 59.9515 16.1134C61.5521 14.4898 61.4402 12.8404 59.6928 12.3014C57.6199 11.6621 49.5305 17.4947 45.7611 22.3463C44.5892 23.8547 43.3499 25.0888 43.0072 25.0888C42.6644 25.0888 41.8479 23.9766 41.1928 22.6172C40.5376 21.2579 39.1641 19.3528 38.1405 18.3836C34.4033 14.845 30.1518 14.2084 24.3732 16.322C21.9478 17.2092 19.9264 17.5744 17.4417 17.5744C14.4423 17.5744 13.7097 17.7579 12.3859 18.8404C9.44732 21.2432 9.78404 25.0166 13.2186 28.1724C16.0566 30.7799 17.9283 31.9032 21.0825 32.8921C26.8822 34.7103 29.0166 39.0574 29.8216 50.6908C30.3114 57.7696 30.2007 59.1388 29.1361 59.1723C28.812 59.1825 23.14 53.8285 16.5317 47.2746ZM50.6436 35.1824C48.6114 33.7519 45.8163 30.8426 45.8163 30.158C45.8163 29.4478 48.7981 25.3092 50.822 23.2102C51.9511 22.0392 53.3166 21.0833 53.8563 21.086C55.4207 21.0938 59.7961 23.2767 62.2323 25.2649C63.4641 26.2701 64.8676 27.0926 65.3511 27.0926C66.5324 27.0926 67.4518 28.0523 67.107 28.9255C66.7022 29.9505 64.1675 31.1002 62.3124 31.1002C60.1911 31.1002 58.362 32.0876 55.8929 34.5656C54.7721 35.6904 53.589 36.6107 53.2638 36.6107C52.9386 36.6107 51.7595 35.968 50.6436 35.1824Z" fill="#E29417"/>
<path d="M38.2561 68.0457L35.1078 64.9147L34.8334 55.8975C34.5203 45.6114 33.5991 40.3049 31.3361 35.7519C29.5347 32.1274 26.9723 29.8595 23.5609 28.8702C20.3364 27.9351 19.0665 27.2616 17.0766 25.4313C14.2645 22.8447 14.7233 22.2241 19.6542 21.9453C21.9933 21.813 24.4067 21.5438 25.0173 21.3471C25.9017 21.0622 26.196 21.228 26.4648 22.1624C27.8711 27.0526 30.0997 28.8734 31.9544 26.6476C32.7861 25.6494 32.8015 25.3662 32.1252 23.5033C31.1477 20.811 31.1876 20.0792 32.3118 20.0792C33.8221 20.0792 36.2388 23.0132 38.9061 28.085C40.7085 31.5122 42.3411 33.7553 44.7699 36.1414C49.6395 40.9255 52.1907 41.9723 62.2745 43.3236C66.8152 43.932 70.7005 44.5953 70.9086 44.7975C71.1166 44.9997 65.2676 51.0177 57.9108 58.1709C42.1948 73.4517 43.1896 72.9519 38.2561 68.0457ZM16.5328 46.9467C6.23108 36.8531 4.37006 34.7934 3.02202 31.994C-0.130488 25.4474 -0.161236 19.2497 2.92731 12.9016C7.53266 3.43586 18.0881 -1.33233 28.5672 1.31938C32.6016 2.3403 35.5837 4.07857 39.416 7.64325C41.1412 9.24802 42.7454 10.561 42.9808 10.561C43.2161 10.561 44.8203 9.24802 46.5455 7.64325C50.3778 4.07857 53.3599 2.3403 57.3943 1.31938C67.8317 -1.32178 78.429 3.43808 82.9937 12.8175C86.7727 20.5825 85.9368 28.5268 80.5994 35.5725C76.9381 40.4057 77.1404 40.3482 67.9585 39.161C63.643 38.603 59.99 38.0277 59.8407 37.8826C59.1688 37.2297 61.5505 35.6088 63.1819 35.6088C65.4928 35.6088 67.9095 34.5708 69.71 32.805C71.4221 31.1257 73.1378 28.0537 73.1378 26.667C73.1378 24.9699 71.4366 23.522 68.902 23.0619C67.4366 22.7958 65.5357 21.909 64.0205 20.7846C62.6556 19.7717 61.017 18.7115 60.379 18.4287C58.9446 17.7928 58.8994 17.0075 60.2502 16.1878C62.1741 15.0202 61.2677 12.0617 58.9872 12.0657C56.7046 12.0698 49.4236 17.4839 45.8679 21.8213C44.6205 23.3429 43.3046 24.5878 42.9437 24.5878C42.5828 24.5878 42.0306 23.8316 41.7167 22.9073C40.9239 20.5729 37.8683 17.2485 35.3217 15.9499C32.4966 14.5093 27.9475 14.5329 24.5087 16.0061C22.8082 16.7346 20.962 17.0734 18.6927 17.0734C12.9455 17.0734 10.2462 18.9261 10.2462 22.8707C10.2462 26.7735 14.8287 31.134 21.0892 33.1886C24.6564 34.3592 26.2065 35.9122 27.7128 39.8246C29.6193 44.7763 30.6842 58.6527 29.1578 58.6527C28.7851 58.6527 23.1038 53.385 16.5328 46.9467ZM52.2598 36.018C50.4824 35.0926 46.3315 30.9258 46.3315 30.067C46.3315 29.1323 48.7912 25.6224 51.1368 23.2101C52.1309 22.1877 53.2096 21.5861 54.0364 21.593C55.9464 21.609 59.5928 23.3447 61.8151 25.2957C62.8753 26.2266 64.4648 27.1423 65.3473 27.3307C66.2297 27.519 66.9517 27.9806 66.9517 28.3563C66.9517 29.4177 64.8411 30.5992 62.9451 30.5992C60.6562 30.5992 58.4169 31.7543 55.6106 34.3823C53.6366 36.231 53.1372 36.4748 52.2598 36.018Z" fill="#E29417"/>
<path d="M38.4942 67.7876L35.1273 64.3985L34.8544 54.3871C34.6313 46.2021 34.3806 43.7036 33.4808 40.6924C31.2996 33.3936 28.8154 30.3697 23.5926 28.6557C18.7823 27.0771 14.4727 23.8237 15.6588 22.6663C15.8463 22.4833 17.8949 22.2071 20.2112 22.0526C22.5275 21.8981 24.7409 21.6726 25.13 21.5516C25.5989 21.4058 26.132 22.1664 26.711 23.8074C27.1988 25.1897 28.1824 26.7168 28.9382 27.2652C30.2355 28.2064 30.3489 28.211 31.6619 27.375C32.8261 26.6337 32.9818 26.2647 32.698 24.919C31.9495 21.3702 31.8028 20.0792 32.148 20.0792C33.4722 20.0792 35.6742 22.6613 37.7918 26.697C40.8049 32.4393 43.7092 36.1672 47.1187 38.6687C51.2073 41.6685 53.656 42.4638 62.2702 43.5893C66.6418 44.1606 70.3429 44.7488 70.495 44.8965C70.647 45.0443 64.7521 51.0177 57.3953 58.1709C48.4222 66.8956 43.664 71.1767 42.9402 71.1767C42.2833 71.1767 40.544 69.8509 38.4942 67.7876ZM16.8481 46.7458C8.1884 38.2707 4.33304 34.1383 3.42001 32.3526C-1.76055 22.2209 1.58662 10.054 11.1878 4.11699C14.9666 1.7803 18.8958 0.894135 24.3682 1.14438C30.3844 1.41949 33.6031 2.85379 38.8858 7.61372C43.2255 11.524 43.1645 11.5205 46.5893 8.04972C51.3572 3.21785 56.3936 1.04291 62.8148 1.04291C69.6429 1.04291 74.9249 3.22617 79.3285 7.86869C85.4515 14.3239 86.7099 24.4257 82.4111 32.6142C81.8929 33.6012 80.3849 35.5805 79.0599 37.0126C77.1403 39.0874 76.326 39.6165 75.0522 39.6165C72.2156 39.6165 61.0398 38.0176 60.5122 37.5364C59.7882 36.8758 60.9814 36.2672 63.8083 35.8553C66.9593 35.3961 68.5644 34.5249 70.6758 32.1278C74.2571 28.062 74.0567 24.1591 70.2133 23.1219C69.1283 22.8291 67.9244 22.5883 67.538 22.5868C67.1516 22.5853 65.4468 21.5696 63.7495 20.3297C62.0522 19.0898 60.4545 18.0754 60.1991 18.0754C59.9437 18.0754 59.7347 17.7373 59.7347 17.324C59.7347 16.9107 59.9716 16.5725 60.2612 16.5725C60.5508 16.5725 61.0477 16.0182 61.3654 15.3407C61.8279 14.3542 61.772 13.8552 61.0847 12.8359C60.6126 12.1358 59.8258 11.5651 59.3362 11.5677C57.3339 11.5783 52.5083 14.9502 47.7637 19.6543L42.752 24.623L41.9533 22.7655C40.7101 19.874 37.8349 16.8048 35.2733 15.6347C32.1407 14.2037 28.6306 14.2638 24.373 15.8211C22.0188 16.6822 19.9133 17.0735 17.634 17.0735C15.6792 17.0735 13.6986 17.3853 12.8068 17.8334C11.0732 18.7046 9.73068 20.9118 9.73068 22.8908C9.73068 26.3393 14.6713 31.1987 20.1855 33.1739C21.6653 33.7039 23.3761 34.3826 23.9872 34.6821C25.6357 35.4898 27.5831 39.3713 28.4736 43.6241C29.2223 47.1997 29.7818 57.87 29.2477 58.3889C29.109 58.5238 23.5291 53.2843 16.8481 46.7458ZM50.3596 34.3986C49.0912 33.4574 47.6537 32.0945 47.1651 31.3698C46.3105 30.1023 46.3212 29.9818 47.4476 28.1967C48.0916 27.1762 49.6524 25.2611 50.9161 23.9411C52.9692 21.7964 53.3824 21.5763 54.7988 21.8724C57.0885 22.351 59.2019 23.4829 61.4303 25.424C62.5046 26.3598 64.0705 27.259 64.91 27.4222C68.0454 28.0315 65.7048 30.5993 62.0139 30.5993C60.3686 30.5993 59.3395 31.0025 57.4983 32.3687C56.1868 33.3418 54.8694 34.5817 54.5708 35.1239C53.8114 36.5028 53.0093 36.3646 50.3596 34.3986Z" fill="#E29417"/>
<path d="M42.2076 70.7999C41.7823 70.6671 40.1005 69.2956 38.4702 67.7523L35.5061 64.9461L35.5007 59.9208C35.4873 47.238 33.6353 37.5894 30.3747 33.2153C28.7573 31.0455 25.4867 28.6029 24.1742 28.5844C21.8144 28.5513 15.9169 24.7732 15.9169 23.2947C15.9169 22.8935 17.2608 22.6159 19.912 22.4695C22.1094 22.3482 24.3112 22.0755 24.805 21.8635C25.4467 21.5881 25.79 21.743 26.0086 22.4068C27.5061 26.9543 28.9062 28.4298 31.1946 27.8716C32.9303 27.4483 33.5006 25.7499 32.6122 23.6499C31.7167 21.5332 31.7049 20.5802 32.5743 20.5802C33.782 20.5802 35.8374 23.2342 38.3938 28.0945C40.2605 31.6435 41.8173 33.7561 44.5164 36.4034C49.6222 41.4109 51.9729 42.3972 61.9596 43.7222C66.7711 44.3606 70.0449 45.0159 70.0449 45.3405C70.0449 46.0312 45.4018 69.8996 44.0119 70.555C43.4449 70.8225 42.6329 70.9326 42.2076 70.7999ZM16.8952 46.7551C4.11198 34.1434 2.49908 31.9532 1.39736 25.7098C-0.487535 15.0282 6.44496 4.53815 17.1851 1.82037C25.4703 -0.276194 33.3032 2.04169 39.8685 8.53278C41.2755 9.92385 42.6476 11.062 42.9177 11.062C43.1878 11.062 44.8204 9.74901 46.5456 8.14424C50.378 4.57955 53.36 2.84128 57.3945 1.82037C61.5455 0.76995 65.6598 0.842385 69.6362 2.0359C81.5734 5.61886 87.8389 18.3284 83.3788 29.9127C82.243 32.8626 78.2706 38.3229 76.6452 39.1682C75.8921 39.5599 73.8526 39.485 69.0918 38.8908C60.3492 37.7997 60.0291 37.7239 60.7242 36.9099C61.0349 36.5461 62.4839 36.1109 63.9441 35.9429C65.4799 35.7661 67.4299 35.1031 68.5697 34.37C70.6537 33.0298 73.6405 28.569 73.6486 26.7844C73.6576 24.8172 71.7743 23.1929 68.7854 22.5899C67.2535 22.2808 65.7325 21.7146 65.4054 21.3316C65.0782 20.9486 63.6575 19.9161 62.2481 19.0373L59.6857 17.4393L60.7413 16.3474C62.0015 15.0439 62.1004 13.4324 60.9867 12.3502C59.9727 11.3648 58.5623 11.3493 56.6652 12.3026C53.8838 13.7003 47.618 18.8933 45.5812 21.4887C44.4598 22.9177 43.3814 24.0868 43.1848 24.0868C42.9881 24.0868 42.3196 23.1288 41.6992 21.9578C38.1392 15.2388 31.7855 12.8296 24.6805 15.5045C22.8651 16.188 20.6802 16.5721 18.6067 16.5723C12.9746 16.5727 9.73082 18.8035 9.73082 22.6764C9.73082 25.161 10.6911 26.9629 13.1771 29.1427C15.8136 31.4544 18.2031 32.8075 21.4657 33.8364C25.6885 35.168 27.6283 38.4921 28.7852 46.3794C29.4165 50.6829 29.4788 58.1518 28.8835 58.1518C28.6434 58.1518 23.2487 53.0233 16.8952 46.7551ZM51.7364 35.16C50.8903 34.6477 49.4147 33.4282 48.4574 32.4499C46.2778 30.2227 46.4467 29.4024 49.9475 25.214C51.9939 22.7657 52.8685 22.0841 53.9588 22.0879C55.8489 22.0945 60.2283 24.1599 61.7438 25.7594C62.4234 26.4766 63.7573 27.313 64.7079 27.6178C65.6586 27.9227 66.4364 28.3722 66.4364 28.6167C66.4364 29.2878 64.6128 30.0983 63.1029 30.0983C60.8888 30.0983 58.0671 31.5171 55.6027 33.8694L53.2748 36.0913L51.7364 35.16Z" fill="#E29417"/>
<path d="M38.7673 67.5447L35.6145 64.4137L35.3496 54.6451C35.1436 47.0503 34.8518 44.0215 34.0383 41.0346C31.9889 33.5092 29.0748 29.9323 23.5334 28.1403C20.1848 27.0574 17.091 25.2127 16.2897 23.8212C15.7271 22.8444 16.2721 22.6998 21.4469 22.4526L25.6882 22.25L26.2447 23.8885C27.5498 27.7313 30.6023 29.3137 32.5909 27.1783C33.6436 26.0479 33.6602 25.2129 32.6754 22.9224C32.2526 21.9392 32.1075 21.0141 32.3528 20.8668C33.2414 20.3331 35.4887 23.0713 37.7446 27.4364C41.6227 34.9402 46.6985 40.0186 52.4388 42.1382C53.7956 42.6392 57.79 43.413 61.3154 43.8579C64.8407 44.3028 68.2885 44.7848 68.9772 44.9289C70.1023 45.1644 68.9011 46.4823 57.1243 57.9333C48.5733 66.2479 43.6547 70.6757 42.9698 70.6757C42.3621 70.6757 40.5924 69.3572 38.7673 67.5447ZM16.8159 46.23C6.49997 36.1441 4.93608 34.402 3.43746 31.3265C1.83703 28.0421 1.74048 27.529 1.74048 22.3075C1.74048 16.9153 1.79108 16.6715 3.68181 12.9538C8.94241 2.61016 21.287 -1.55908 32.2779 3.29584C33.8048 3.97033 36.6489 6.02545 38.8237 8.02574C40.9388 9.9712 42.8095 11.5629 42.9809 11.5629C43.1522 11.5629 45.023 9.9712 47.1381 8.02574C49.2975 6.03952 52.1677 3.96297 53.6839 3.28988C64.664 -1.58449 77.0145 2.60064 82.296 12.9854C84.1683 16.6667 84.2213 16.9235 84.2213 22.3075C84.2213 27.4792 84.1143 28.0635 82.597 31.1756C81.7036 33.008 79.8478 35.632 78.4729 37.0067L75.9732 39.5061L69.0139 38.5827C65.1863 38.0748 61.7066 37.6416 61.2813 37.62C59.871 37.5484 62.3882 36.1098 63.9238 36.1098C67.1543 36.1098 70.7618 33.5861 72.6676 29.993C74.7431 26.0799 73.3062 23.0586 69.0556 22.3981C67.5833 22.1693 65.7209 21.2586 63.5881 19.7246L60.3535 17.3981L61.4211 15.9949C62.3205 14.8127 62.3948 14.3916 61.8926 13.3204C61.5647 12.6212 60.7359 11.8009 60.0507 11.4975C58.0907 10.6297 54.0812 13.0616 48.1744 18.7009C45.3603 21.3876 42.9935 23.5859 42.9147 23.5859C42.8359 23.5859 42.3978 22.8206 41.9411 21.8852C39.4501 16.784 34.4477 13.7493 29.2805 14.2046C27.6785 14.3458 25.2627 14.9363 23.9121 15.5169C22.1664 16.2673 20.3947 16.573 17.7845 16.5744C15.0114 16.5758 13.6949 16.8237 12.4062 17.5872C10.3787 18.7885 8.99651 21.6461 9.4283 23.7441C10.2091 27.5381 14.9271 31.8165 20.3707 33.6671C22.0323 34.2319 23.8223 35.0689 24.3487 35.5271C25.8548 36.8383 27.2765 39.9373 28.0313 43.5544C28.9396 47.9069 29.5886 57.6508 28.9702 57.6508C28.7101 57.6508 23.2406 52.5114 16.8159 46.23ZM50.6153 34.1041C49.4572 33.2765 48.1176 32.0178 47.6384 31.307C46.7991 30.0623 46.8168 29.9417 48.1195 28.0287C50.1982 24.9763 53.0604 22.0825 53.9953 22.0879C55.4196 22.0962 59.9236 24.3824 61.2282 25.7593C61.9079 26.4766 63.2417 27.3129 64.1924 27.6178C65.1431 27.9227 65.9209 28.3722 65.9209 28.6166C65.9209 29.3512 64.0393 30.0983 62.1894 30.0983C60.2185 30.0983 56.369 32.2597 54.7269 34.2884C54.1391 35.0146 53.4472 35.6088 53.1895 35.6088C52.9317 35.6088 51.7733 34.9317 50.6153 34.1041Z" fill="#E29417"/>
<path d="M39.0254 67.2943L36.1333 64.4138L35.8744 55.1461C35.587 44.86 34.7751 40.2698 32.3628 35.295C30.5412 31.5383 27.6347 28.8918 24.2617 27.9184C20.9036 26.9493 19.022 25.9657 17.5024 24.3849L16.2527 23.085L19.8222 23.0781C21.7854 23.0743 23.9136 22.9353 24.5516 22.7692C25.4127 22.5449 25.7115 22.6809 25.7115 23.297C25.7115 24.5811 27.6318 27.9345 28.5669 28.2832C30.1677 28.8801 31.9039 28.5893 32.9796 27.544C34.0639 26.4902 34.0941 25.6288 33.1535 22.584L32.7667 21.3316L33.913 22.3162C34.5435 22.8577 36.2537 25.5604 37.7136 28.3221C39.7261 32.1295 41.2445 34.2031 43.9941 36.8989C49.083 41.8881 51.6525 42.9887 61.1515 44.248C65.3341 44.8025 68.8616 45.3483 68.9904 45.461C69.1193 45.5737 63.5536 51.1804 56.6223 57.9203C48.401 65.9146 43.6544 70.1748 42.9687 70.1748C42.3681 70.1748 40.678 68.9402 39.0254 67.2943ZM17.0444 45.9236C2.75979 31.8423 2.25598 31.0301 2.25598 22.083C2.25598 16.7639 2.36867 16.0989 3.72509 13.4127C7.841 5.26187 17.5336 0.354928 26.3653 1.951C30.8879 2.76832 34.6189 4.72755 38.5963 8.37376C40.5097 10.1278 42.4828 11.563 42.9809 11.563C43.479 11.563 45.452 10.1278 47.3654 8.37376C51.4703 4.61077 55.1961 2.70769 59.9603 1.94051C68.8546 0.508287 77.9179 5.16254 82.1593 13.3403C83.6101 16.1375 83.7058 16.6785 83.7058 22.083C83.7058 27.5157 83.6135 28.0296 82.0872 31.1002C81.1971 32.8912 79.4572 35.4364 78.221 36.7563L75.9732 39.1561L69.5294 38.3411C61.6348 37.3425 60.7655 37.0517 64.268 36.5808C65.8105 36.3734 67.8794 35.6464 69.0264 34.9088C71.4573 33.3455 74.1573 29.0202 74.1641 26.6783C74.1703 24.5337 71.7955 22.0863 69.6979 22.0757C68.0919 22.0675 67.3245 21.6952 63.3694 19.0057C61.7021 17.8719 60.9098 17.0461 61.2774 16.8254C63.1555 15.6974 62.6279 12.0918 60.4432 11.1245C59.3845 10.6557 58.7386 10.7213 56.9892 11.4756C54.1238 12.7111 47.5491 17.9414 45.3006 20.774C44.3083 22.0242 43.379 23.0556 43.2356 23.066C43.0922 23.0764 42.6487 22.3689 42.25 21.4938C41.2099 19.2104 38.2211 16.1601 35.8926 15.0057C32.5427 13.345 29.6071 13.2796 25.0562 14.7645C22.535 15.5871 19.9202 16.0716 18.0016 16.0716C12.9869 16.0716 10.1577 17.6801 9.21996 21.0643C7.86576 25.9515 13.0997 31.8753 20.9502 34.3408C25.5177 35.7753 27.3277 39.2677 28.3246 48.57C29.4153 58.7469 30.252 58.9432 17.0444 45.9236ZM49.8028 32.6622L47.1645 30.2164L48.1165 28.7798C50.0584 25.8494 53.1556 22.5843 53.9834 22.595C55.4477 22.6139 59.4055 24.5777 61.0236 26.0883C61.8741 26.8824 63.2581 27.7843 64.0991 28.0925C65.3146 28.538 65.4732 28.7483 64.8724 29.1175C64.4567 29.373 63.3534 29.5855 62.4207 29.5897C60.2138 29.5997 57.3455 31.0622 55.123 33.3106C54.1459 34.2991 53.1428 35.1079 52.8938 35.1079C52.6448 35.1079 51.2538 34.0073 49.8028 32.6622Z" fill="#E29417"/>
</svg>
